<?xml version="1.0" encoding="UTF-8"?>
<svg version="1.1" xmlns="http://www.w3.org/2000/svg" width="512" height="512">
<path d="M0 0 C4.88523875 5.17260573 5.62518507 10.07687491 5.5 16.875 C5.48984863 17.67043213 5.47969727 18.46586426 5.46923828 19.28540039 C5.04506092 35.54060021 -1.28405554 47.9676331 -12.875 59.25 C-28.29568843 73.35127123 -45.34443315 73.58713811 -65.08276367 73.63085938 C-79.97317808 73.23695881 -79.97317808 73.23695881 -92.72412109 79.95849609 C-97.8876399 85.37598447 -98.87419687 90.9963158 -99.875 98.25 C-98.78078232 98.24333817 -97.68656464 98.23667633 -96.55918884 98.22981262 C-86.18901155 98.16869257 -75.81887135 98.12388016 -65.44855404 98.09456348 C-60.11853905 98.07898426 -54.7886708 98.05788935 -49.45874023 98.02368164 C-44.30399214 97.99080964 -39.14938418 97.97308895 -33.99453926 97.96536827 C-32.03919841 97.95987429 -30.08386422 97.94914774 -28.12858391 97.93280983 C-4.70724002 97.74509459 16.23937415 101.7487286 34.125 118.25 C50.44869542 135.27720437 55.27978388 155.33815819 55.27026367 178.32470703 C55.27530159 180.09007057 55.27530159 180.09007057 55.28044128 181.89109802 C55.28990229 185.76334707 55.2918921 189.63555263 55.29296875 193.5078125 C55.29439414 194.85127659 55.29599048 196.19474051 55.29775429 197.53820419 C55.30698624 204.57755712 55.3110921 211.61689122 55.31030273 218.65625 C55.30970336 225.17780948 55.32023304 231.69928587 55.3360464 238.22082436 C55.34920483 243.85177083 55.35448314 249.48269042 55.35384732 255.11365211 C55.35359465 258.46249322 55.35726398 261.81120215 55.36702538 265.16003799 C55.44025259 292.88142697 53.8232374 317.04267914 33.875 338.125 C14.17285013 356.7584658 -9.34194966 358.56900959 -34.98046875 358.50878906 C-36.94699228 358.51150601 -38.91351478 358.51507086 -40.8800354 358.51940918 C-46.17340767 358.52845182 -51.46670114 358.52502278 -56.76007462 358.51865101 C-62.32857712 358.5135486 -67.89707337 358.51829415 -73.46557617 358.52142334 C-82.81267494 358.52505071 -92.15974199 358.52029626 -101.50683594 358.51074219 C-112.27686321 358.49986003 -123.04681473 358.50338648 -133.81684017 358.514395 C-143.10311749 358.52350302 -152.38937215 358.52473603 -161.6756525 358.51951766 C-167.2047099 358.51641722 -172.73373182 358.51593517 -178.26278687 358.52259064 C-183.4635201 358.52841485 -188.6641567 358.52427539 -193.86487961 358.51280212 C-195.76098852 358.51018246 -197.65710572 358.51087382 -199.55321121 358.51532745 C-225.31799952 358.57021403 -247.1336449 355.45763348 -266.625 337.0625 C-287.19338794 315.54571377 -287.18944745 290.16981223 -287.140625 262.25 C-287.14107213 259.52343603 -287.14391533 256.79687524 -287.14642334 254.0703125 C-287.15004311 248.37497995 -287.14531654 242.67969959 -287.13574219 236.984375 C-287.12486148 230.43712175 -287.12838848 223.88999315 -287.139395 217.34274292 C-287.14852501 211.68113146 -287.14972545 206.01955713 -287.14451766 200.35794067 C-287.14142911 196.99412739 -287.14170844 193.63041852 -287.14759064 190.26660156 C-287.18251855 164.68348508 -286.41030775 139.96109902 -267.7890625 120.109375 C-252.65555775 105.4082561 -233.8552982 98.04383281 -212.81860352 98.13647461 C-211.93975998 98.13632858 -211.06091644 98.13618256 -210.15544128 98.1360321 C-207.27157053 98.13672473 -204.38776562 98.14448652 -201.50390625 98.15234375 C-199.49608902 98.15421024 -197.48827134 98.15563305 -195.48045349 98.15663147 C-190.2115451 98.16043845 -184.94266453 98.17025312 -179.67376709 98.18133545 C-174.29097876 98.19158877 -168.90818591 98.19613748 -163.52539062 98.20117188 C-152.97524823 98.21187709 -142.42512643 98.22893156 -131.875 98.25 C-131.88016632 97.63606888 -131.88533264 97.02213776 -131.89065552 96.38960266 C-131.89668289 95.17834969 -131.89668289 95.17834969 -131.90283203 93.94262695 C-131.90799835 93.14307083 -131.91316467 92.34351471 -131.91848755 91.51972961 C-131.67233999 78.67264095 -124.90610704 66.54586526 -116.22265625 57.5 C-99.93627811 41.89109183 -83.09238902 40.91659828 -61.66723633 40.86914062 C-46.76894225 41.2678132 -46.76894225 41.2678132 -34.02319336 34.52978516 C-28.89437803 29.1774972 -27.7116878 23.68637095 -27.5 16.375 C-27.13881549 10.57156076 -26.56300892 5.88335298 -22.875 1.25 C-15.58675083 -4.79769612 -8.01757764 -4.88026465 0 0 Z M-209.05859375 186.875 C-212.10473319 192.56428767 -212.36577553 197.37870898 -212.125 203.75 C-212.09792969 205.12671875 -212.09792969 205.12671875 -212.0703125 206.53125 C-212.02363102 208.77196092 -211.95818522 211.01039799 -211.875 213.25 C-212.46925781 213.22381592 -213.06351563 213.19763184 -213.67578125 213.1706543 C-216.40857742 213.06573065 -219.14094858 213.00137971 -221.875 212.9375 C-222.80957031 212.89560547 -223.74414062 212.85371094 -224.70703125 212.81054688 C-231.33708491 212.69463685 -235.80849502 213.83744241 -240.875 218.25 C-243.98508009 222.62355013 -244.76168834 226.98082908 -243.875 232.25 C-242.49041483 236.54308482 -240.3645701 239.30141768 -236.375 241.4375 C-231.40002195 243.79823799 -226.78879284 243.70459101 -221.375 243.5 C-220.4571875 243.48195313 -219.539375 243.46390625 -218.59375 243.4453125 C-216.35303908 243.39863102 -214.11460201 243.33318522 -211.875 243.25 C-211.89071045 243.82443848 -211.9064209 244.39887695 -211.92260742 244.99072266 C-211.98535513 247.61871309 -212.02411506 250.24654537 -212.0625 252.875 C-212.08763672 253.77863281 -212.11277344 254.68226563 -212.13867188 255.61328125 C-212.21504339 262.58854608 -211.13879798 266.82450216 -206.25 272.0625 C-202.48525617 274.95629563 -198.54649193 275.52726481 -193.875 275.25 C-188.59608416 273.52420059 -186.05579063 270.61222715 -182.875 266.25 C-181.91411617 263.36734851 -181.75829059 261.57337729 -181.77734375 258.58203125 C-181.78056641 257.68935547 -181.78378906 256.79667969 -181.78710938 255.87695312 C-181.79548828 254.94818359 -181.80386719 254.01941406 -181.8125 253.0625 C-181.81701172 252.12212891 -181.82152344 251.18175781 -181.82617188 250.21289062 C-181.83795374 247.89186288 -181.85440442 245.57096356 -181.875 243.25 C-181.31103516 243.27094727 -180.74707031 243.29189453 -180.16601562 243.31347656 C-177.56919751 243.39748501 -174.97266638 243.44892229 -172.375 243.5 C-171.0446875 243.55027344 -171.0446875 243.55027344 -169.6875 243.6015625 C-163.62060188 243.69078159 -158.86393797 242.88376973 -153.875 239.25 C-150.96166722 235.85471715 -149.65165485 232.66761942 -149.4375 228.1875 C-150.04078577 222.75792804 -151.35486376 219.65612602 -155.375 215.9375 C-158.94208029 213.5297208 -161.56178147 213.12688958 -165.76171875 213.15234375 C-166.69951172 213.15556641 -167.63730469 213.15878906 -168.60351562 213.16210938 C-169.57998047 213.17048828 -170.55644531 213.17886719 -171.5625 213.1875 C-172.55056641 213.19201172 -173.53863281 213.19652344 -174.55664062 213.20117188 C-176.99615474 213.21295697 -179.43554689 213.22940989 -181.875 213.25 C-181.84881592 212.65574219 -181.82263184 212.06148437 -181.7956543 211.44921875 C-181.69073065 208.71642258 -181.62637971 205.98405142 -181.5625 203.25 C-181.4996582 201.84814453 -181.4996582 201.84814453 -181.43554688 200.41796875 C-181.31963685 193.78791509 -182.46244241 189.31650498 -186.875 184.25 C-193.91745746 179.24203025 -203.74171394 179.57525742 -209.05859375 186.875 Z M-47.1875 187.4375 C-49.51895363 191.32325605 -50.20055456 194.73099272 -49.875 199.25 C-48.27784063 204.05087317 -45.23302617 207.73202932 -40.875 210.25 C-36.45547659 211.43672388 -32.99367702 211.61572133 -28.625 210.1875 C-24.48302105 207.26928756 -21.51022345 204.15567035 -19.875 199.25 C-19.22375915 193.71445273 -20.30570978 190.44889006 -23.39453125 185.984375 C-26.07104268 182.84883126 -28.78646459 181.5806499 -32.82421875 180.94140625 C-39.18071638 180.54185497 -42.63568414 183.13172824 -47.1875 187.4375 Z M-79.234375 218.98046875 C-81.76759653 223.32685227 -82.45807818 227.11077362 -81.6171875 232.0703125 C-79.98880162 236.85262471 -76.73099588 240.04611078 -72.5625 242.75 C-67.68855783 243.65677994 -63.15485075 243.61187682 -58.80859375 241.015625 C-55.39228231 238.24834141 -52.70098582 235.68967379 -51.875 231.25 C-51.90365557 226.02513447 -52.37859698 221.32913686 -55.875 217.25 C-60.18837868 214.12068606 -63.51890595 212.54187014 -68.890625 212.875 C-73.28634691 213.70568761 -76.45679492 215.44464123 -79.234375 218.98046875 Z M-14.6875 218.9375 C-17.26361084 222.83846784 -18.17215012 225.60365261 -17.875 230.25 C-16.23583995 235.93884958 -13.88898629 239.09304567 -8.875 242.25 C-4.45231089 243.53400652 -1.00935792 243.62084778 3.375 242.1875 C7.16922108 239.51429878 10.02371529 236.45256941 12.125 232.25 C12.57302307 226.96332778 12.37931583 223.29559337 9.453125 218.79296875 C6.1297718 214.9320143 2.5546167 213.42556696 -2.4375 212.8125 C-7.81489559 213.4968958 -10.78240028 215.20596027 -14.6875 218.9375 Z M-47.89453125 252.4453125 C-49.77032361 255.89796617 -50.10539967 259.36811462 -49.875 263.25 C-48.2747745 268.14480741 -45.41589345 271.76238011 -40.875 274.25 C-36.14618503 275.75621514 -32.13429596 275.71663849 -27.5625 273.75 C-23.54507618 271.40850748 -21.31314537 268.67229702 -19.875 264.25 C-18.92888358 259.24346729 -19.71179328 255.07738063 -22.4765625 250.79296875 C-25.85008995 247.07078064 -30.11996518 245.49570487 -35 244.8125 C-40.50655369 245.65045382 -44.46978195 247.98981341 -47.89453125 252.4453125 Z " fill="#000000" transform="translate(371.875,78.75)"/>
</svg>
